{"title":"Bonded.By.Blood.2010.720p.BRRip.x264.Feel-Free","uid":6071357,"size":1906345792,"categoryP":"video","categoryS":"hd___movies","magnet":"?xt=urn:btih:dd756db88f65db302b374efc897abe6f15869949&amp;dn=Bonded.By.Blood.2010.720p.BRRip.x264.Feel-Free&amp;tr=udp%3A%2F%2Ftracker.openbittorrent.com%3A80&amp;tr=udp%3A%2F%2Fopen.demonii.com%3A1337&amp;tr=udp%3A%2F%2Ftracker.coppersurfer.tk%3A6969&amp;tr=udp%3A%2F%2Fexodus.desync.com%3A6969","seeders":0,"leechers":5,"uploader":"neon","files":8,"time":1293634133,"description":"Genre:Crime\nLanguage:English\nIMDb:http://www.imdb.com/title/tt1540400/\nSource:BluRay.x264-AVCHD\n\n\nFormat : Matroska\nFile size : 1.77 GiB\nDuration : 1h 36mn\nOverall bit rate : 2 636 Kbps\n\n\nVideo\nFormat settings, CABAC : Yes\nFormat settings, ReFrames : 4 frames\nCodec ID : V_MPEG4/ISO/AVC\nDuration : 1h 36mn\nBit rate : 2 300 Kbps\nWidth : 1 280 pixels\nHeight : 528 pixels\nDisplay aspect ratio : 2.40:1\nFrame rate mode : Variable\nFrame rate : 23.976 fps\nColor space : YUV\nChroma subsampling : 4:2:0\nBit depth : 8 bits\nScan type : Progressive\nBits/(Pixel*Frame) : 0.142\nStream size : 1.48 GiB (83%)\nWriting library : x264\n\nAudio\nID : 2\nFormat : AC-3\nFormat/Info : Audio Coding 3\nMode extension : CM (complete main)\nCodec ID : A_AC3\nDuration : 1h 36mn\nBit rate mode : Constant\nBit rate : 384 Kbps\nChannel(s) : 6 channels\nChannel positions : Front: L C R, Side: L R, LFE\nSampling rate : 48.0 KHz\nBit depth : 16 bits\nVideo delay : -1mn 5s\nStream size : 264 MiB (15%)\nLanguage : English\n\n\n\nPlot:\nIn 1995, drug suppliers and career criminals Tony Tucker, Patrick Tate and Craig Rolfe were blasted to death by a shot gun whilst waiting in a Range Rover in Rettendon\n\n","torrent":{"xt":"urn:btih:dd756db88f65db302b374efc897abe6f15869949","amp;dn":"Bonded.By.Blood.2010.720p.BRRip.x264.Feel-Free","amp;tr":["udp%3A%2F%2Ftracker.openbittorrent.com%3A80","udp%3A%2F%2Fopen.demonii.com%3A1337","udp%3A%2F%2Ftracker.coppersurfer.tk%3A6969","udp%3A%2F%2Fexodus.desync.com%3A6969"],"infoHash":"dd756db88f65db302b374efc897abe6f15869949","infoHashBuffer":{"type":"Buffer","data":[221,117,109,184,143,101,219,48,43,55,78,252,137,122,190,111,21,134,153,73]},"announce":[],"urlList":[]}}